<?xml version="1.0" encoding="utf-8"?>
<!-- Generator: Adobe Illustrator 14.0.0, SVG Export Plug-In . SVG Version: 6.00 Build 43363)  -->
<!DOCTYPE svg PUBLIC "-//W3C//DTD SVG 1.1//EN" "http://www.w3.org/Graphics/SVG/1.1/DTD/svg11.dtd">
<svg version="1.1" id="Layer_1" xmlns="http://www.w3.org/2000/svg" xmlns:xlink="http://www.w3.org/1999/xlink" x="0px" y="0px"
	 width="640px" height="640px" viewBox="50.604 5.61 503.975 640.468" enable-background="new 50.604 5.61 503.975 640.468"
	 xml:space="preserve">
<g>
	<g>
		<path fill="#FCFCFC" d="M306,116.983c72.926,0,184.126,36.377,184.126,36.377c11.519,3.77,24.939-2.222,29.829-13.311
			l20.979-47.601c4.89-11.09-0.538-23.244-12.057-27.014c0,0-136.164-44.554-222.878-44.554
			c-86.708,0-222.878,44.554-222.878,44.554c-11.518,3.77-16.94,15.924-12.05,27.014l20.979,47.601
			c4.89,11.089,18.311,17.081,29.829,13.311C121.874,153.366,233.068,116.983,306,116.983z"/>
	</g>
	<path fill="#FCFCFC" d="M306,141.004c-69.542,0-135.601,14.909-195.161,41.689L306,625.5l195.161-442.807
		C441.582,155.918,375.529,141.004,306,141.004z M238.979,291.403c-24.18,0-43.782-19.602-43.782-43.782
		s19.603-43.783,43.782-43.783c24.18,0,43.789,19.603,43.789,43.783S263.16,291.403,238.979,291.403z M359.789,340.627
		c0,24.187-19.608,43.776-43.789,43.776c-24.186,0-43.789-19.59-43.789-43.776H359.789z M371.796,289.604
		c-24.168,0-43.782-19.602-43.782-43.782s19.614-43.783,43.782-43.783c24.192,0,43.795,19.603,43.795,43.783
		C415.591,270.008,395.988,289.604,371.796,289.604z"/>
</g>
</svg>
